<?xml version="1.0" encoding="UTF-8"?>
<svg width="395px" height="171px" viewBox="0 0 395 171" version="1.1" xmlns="http://www.w3.org/2000/svg" xmlns:xlink="http://www.w3.org/1999/xlink">
    <!-- Generator: Sketch 48.2 (47327) - http://www.bohemiancoding.com/sketch -->
    <title>design-logo</title>
    <desc>Created with Sketch.</desc>
    <defs></defs>
    <g id="Desktop-HD" stroke="none" stroke-width="1" fill="none" fill-rule="evenodd" transform="translate(-549.000000, -3136.000000)">
        <g id="加入我们" transform="translate(94.000000, 2505.000000)" fill="#FFFFFF">
            <g id="design" transform="translate(384.000000, 614.000000)">
                <g id="design-logo" transform="translate(71.000000, 17.000000)">
                    <text id="design" font-family="PingFangSC-Light, PingFang SC" font-size="72" font-weight="300">
                        <tspan x="184" y="147">design</tspan>
                    </text>
                    <path d="M110.275176,19.8716223 L151.116588,60.7167993 L61.2667046,150.577412 L20.4191772,109.729177 L110.275176,19.8716223 Z M126.612352,3.54027859 L167.45988,44.3854555 L155.204704,56.63167 L114.357177,15.7864931 L126.612352,3.54027859 Z M16.3371764,113.817364 L57.1816461,154.659483 L0,171 L16.3371764,113.817364 Z M142.445012,3.02352197 L167.97357,28.5555797 C172.199282,32.7783069 171.973013,39.8722439 167.462938,44.3854555 C162.943689,48.8956094 155.862105,49.1218815 151.633336,44.8899812 L126.098662,19.3670967 C121.872951,15.1321386 122.099219,8.0504325 126.612352,3.54027859 C131.128544,-0.972933053 138.210127,-1.19920518 142.445012,3.02352197 Z" id="Shape" fill-rule="nonzero"></path>
                </g>
            </g>
        </g>
    </g>
</svg>