<?xml version="1.0" standalone="no"?><!DOCTYPE svg PUBLIC "-//W3C//DTD SVG 1.1//EN" "http://www.w3.org/Graphics/SVG/1.1/DTD/svg11.dtd"><svg class="icon" width="200px" height="200.00px" viewBox="0 0 1024 1024" version="1.1" xmlns="http://www.w3.org/2000/svg"><path d="M864.256 574.293333V328.362667a130.730667 130.730667 0 0 0-93.866667-125.269334V147.456a17.066667 17.066667 0 0 0-17.066666-17.066667h-133.973334a17.066667 17.066667 0 0 0-17.066666 17.066667v50.005333H313.344a153.6 153.6 0 0 0-153.6 153.6v223.232a51.2 51.2 0 0 0 10.922667 101.034667h52.053333a62.634667 62.634667 0 0 0 61.781333 53.76h163.498667V921.6a17.066667 17.066667 0 1 0 34.133333 0V729.088h59.733334V921.6a17.066667 17.066667 0 1 0 34.133333 0V729.088h163.498667A62.634667 62.634667 0 0 0 802.133333 675.328h51.2a51.2 51.2 0 0 0 10.922667-101.034667z m-227.84-409.6h99.84v73.216h-99.84z m-17.066667 187.733334a31.573333 31.573333 0 1 1-31.573333 31.573333 31.573333 31.573333 0 0 1 31.573333-31.744z m-17.066666-120.661334v89.088a65.536 65.536 0 1 0 34.133333 0v-48.981333h116.906667a17.066667 17.066667 0 0 0 17.066666-17.066667V238.933333a96.938667 96.938667 0 0 1 59.733334 89.258667v187.733333H515.584v-164.864a153.6 153.6 0 0 0-57.173333-119.466666z m227.84 318.293334v22.869333H515.584v-22.869333z m-500.053334-83.968l80.384 39.936a18.090667 18.090667 0 0 0 15.36 0L481.450667 477.866667v94.549333H274.261333V398.165333a5.632 5.632 0 0 1 5.632-5.632h201.557334v47.616l-63.317334 31.573334-72.874666-36.181334a17.066667 17.066667 0 0 0-22.869334 7.68 17.066667 17.066667 0 0 0 7.68 22.869334zM321.877333 358.4l4.096-26.453333a5.973333 5.973333 0 0 1 6.656-4.778667l148.821334 23.552V358.4z m-128-7.338667a119.466667 119.466667 0 0 1 119.466667-119.466666h48.64a119.466667 119.466667 0 0 1 114.005333 83.797333l-138.069333-22.016a39.936 39.936 0 0 0-45.568 33.109333l-5.12 31.914667h-7.338667a39.936 39.936 0 0 0-39.765333 39.765333v174.762667h-46.250667z m546.133334 343.893334H284.501333a28.501333 28.501333 0 0 1-26.965333-19.626667h508.928a28.501333 28.501333 0 0 1-26.965333 19.626667zM853.333333 641.194667H170.666667a17.066667 17.066667 0 0 1 0-34.133334h682.666666a17.066667 17.066667 0 0 1 0 34.133334z" fill="#ffffff" /></svg>