<?xml version="1.0" standalone="no"?><!DOCTYPE svg PUBLIC "-//W3C//DTD SVG 1.1//EN" "http://www.w3.org/Graphics/SVG/1.1/DTD/svg11.dtd"><svg class="icon" width="200px" height="200.00px" viewBox="0 0 1024 1024" version="1.1" xmlns="http://www.w3.org/2000/svg"><path d="M511.609097 961.619254" fill="#ffffff" /><path d="M898.072963 562.972928c-14.464433-46.502104-41.023322-82.948177-63.153342-107.20872 0.233314-3.360538 0.38988-6.708795 0.38988-10.076496 0-25.718755-6.757914-50.678216-20.020986-74.349335l0-0.326435c0-169.137165-136.222521-306.754452-303.627229-306.754452-167.410847 0-303.632345 137.617287-303.632345 306.754452l0 1.088798c-12.978593 23.447015-19.574824 48.15986-19.574824 73.579809 0 3.063779 0.106424 6.170536 0.326435 9.299807-22.398126 24.399713-49.28345 61.122079-63.86147 108.021226-27.204595 87.681992-23.948435 191.797257 35.69599 212.079186 19.928888 6.730285 41.697681 2.62478 61.278645-11.668761 0.51677 0.792039 0.997724 1.534959 1.528819 2.320858-33.460066 20.410865-52.100612 48.866964-52.100612 80.634482 0 65.354474 76.833923 112.733551 182.704159 112.733551 56.17644 0 108.234073-14.556531 141.664463-39.333844 10.862395 0.608867 20.552082 0.608867 31.555693 0 33.416064 24.790616 85.460394 39.333844 141.629671 39.333844 105.86205 0 182.753277-47.379077 182.753277-112.733551 0-31.689746-18.605753-60.104913-51.910277-80.507592 0.545422-0.792039 1.027399-1.534959 1.550309-2.320858 19.517519 14.210653 41.159422 18.314111 61.107753 11.534707 59.687404-20.281929 62.936401-124.397195 35.703153-212.116025L898.072963 562.972928zM848.0118 732.704634c-11.846816 4.02057-25.874297-8.618285-34.600029-19.057031-4.733814-5.683443-11.93175-8.698103-19.48989-7.870248-7.395434 0.74292-13.926174 5.166673-17.415648 11.761881-7.933693 14.904455-17.260106 29.234835-27.805276 42.624796-4.28049 5.505387-5.796006 12.716626-4.040013 19.48989 1.789763 6.728238 6.601348 12.277628 13.071713 14.988366 31.230282 13.027711 49.112558 31.867802 49.112558 51.752688 0 37.502126-61.873186 67.966974-137.970328 67.966974-49.340755 0-95.261621-13.156648-119.81176-34.400484-4.084015-3.489474-9.262968-5.415336-14.642488-5.415336-0.545422 0-1.11745 0-1.662873 0.035816-15.428388 1.188058-27.51568 1.139963-42.525536 0-6.170536-0.566912-11.846816 1.493004-16.324804 5.378497-24.620747 21.243837-70.521147 34.400484-119.875205 34.400484-76.05621 0-137.950885-30.464849-137.950885-67.974138 0-19.928888 17.96107-38.851866 49.326429-51.837622 6.445806-2.702552 11.272741-8.208962 13.049201-14.988366 1.789763-6.779404 0.303922-13.984503-4.00522-19.497053-10.530844-13.453407-19.85828-27.832905-27.734668-42.701544-3.489474-6.560416-10.04989-11.011798-17.437138-11.761881-7.515161-0.793062-14.761192 2.186805-19.539009 7.868201-8.761548 10.531867-22.660092 23.425525-34.725896 19.228947-22.901593-7.785314-31.273261-79.282694-7.317663-156.443052 13.524015-43.670615 40.36636-77.259618 60.514235-97.760534 4.940522-5.045923 7.239891-12.150738 6.121418-19.156292-0.74292-4.728698-1.131777-9.250688-1.131777-13.638625 0-19.276019 5.619998-38.250162 16.630772-56.359612 2.405793-3.962242 3.496637-8.576329 3.191692-13.183254-0.106424-1.685385-0.199545-3.411703-0.199545-5.130857 0-144.462183 116.117624-262.000156 258.851443-262.000156 142.762471 0 258.865769 117.532857 258.865769 262.000156 0 1.549286-0.084934 3.056616-0.192382 4.585435-0.282433 4.6366 0.842181 9.248641 3.27765 13.183254 11.259438 18.264992 16.935718 37.409005 16.935718 56.905034 0 4.594645-0.38988 9.228175-1.196245 14.161534-1.203408 7.042393 1.067308 14.182001 6.078439 19.305695 19.865443 20.354584 46.438659 53.756321 59.877739 97.109712 23.955598 77.145008 15.581883 148.648528-7.29515 156.426679L848.0118 732.702588zM848.0118 732.704634" fill="#ffffff" /></svg>